<?xml version="1.0" encoding="UTF-8" standalone="no"?>
<!-- Generator: Adobe Illustrator 15.1.0, SVG Export Plug-In . SVG Version: 6.00 Build 0)  -->

<svg
   xmlns:dc="http://purl.org/dc/elements/1.1/"
   xmlns:cc="http://creativecommons.org/ns#"
   xmlns:rdf="http://www.w3.org/1999/02/22-rdf-syntax-ns#"
   xmlns:svg="http://www.w3.org/2000/svg"
   xmlns="http://www.w3.org/2000/svg"
   xmlns:sodipodi="http://sodipodi.sourceforge.net/DTD/sodipodi-0.dtd"
   xmlns:inkscape="http://www.inkscape.org/namespaces/inkscape"
   version="1.1"
   id="Ebene_1"
   x="0px"
   y="0px"
   width="262.089px"
   height="152.51px"
   viewBox="0 0 262.089 152.51"
   enable-background="new 0 0 262.089 152.51"
   xml:space="preserve"
   inkscape:version="0.91 r13725"
   sodipodi:docname="abblendspiegel3_lichtbrech_neu.svg"><metadata
     id="metadata175"><rdf:RDF><cc:Work
         rdf:about=""><dc:format>image/svg+xml</dc:format><dc:type
           rdf:resource="http://purl.org/dc/dcmitype/StillImage" /><dc:title /></cc:Work></rdf:RDF></metadata><defs
     id="defs173" /><sodipodi:namedview
     pagecolor="#ffffff"
     bordercolor="#666666"
     borderopacity="1"
     objecttolerance="10"
     gridtolerance="10"
     guidetolerance="10"
     inkscape:pageopacity="0"
     inkscape:pageshadow="2"
     inkscape:window-width="1920"
     inkscape:window-height="1058"
     id="namedview171"
     showgrid="false"
     inkscape:zoom="2.6708486"
     inkscape:cx="129.21901"
     inkscape:cy="58.492767"
     inkscape:window-x="1912"
     inkscape:window-y="-8"
     inkscape:window-maximized="1"
     inkscape:current-layer="g5517" /><g
     inkscape:groupmode="layer"
     id="layer1"
     inkscape:label="Layer 1"><g
       id="Layer_x0020_1"
       style=""><linearGradient
         id="SVGID_1_"
         gradientUnits="userSpaceOnUse"
         x1="-9373.7832"
         y1="-17461.877"
         x2="-10266.3027"
         y2="-16769.4512"
         gradientTransform="matrix(-0.0087 -0.0032 -0.0032 0.0087 254.211 557.7683)"><stop
           offset="0"
           style="stop-color:#CCCCCC"
           id="stop5" /><stop
           offset="1"
           style="stop-color:#FFFFFF"
           id="stop7" /></linearGradient><path
         d="M67.656,51.045c3.049,4.873,3.908,11.058,1.788,16.882c-2.12,5.824-6.744,10.014-12.221,11.784   c-4.54-9.704-12.895-20.924-24.13-25.014C44.329,58.787,57.941,55.561,67.656,51.045z"
         id="path9"
         style="fill:#f9f9f9"
         fill="url(#SVGID_1_)" /><path
         d="M70.284,57.756c0.622,3.296,0.389,6.796-0.84,10.171c-1.229,3.376-3.308,6.204-5.895,8.333   c0.296-3.18,1.018-6.443,2.195-9.678S68.466,60.382,70.284,57.756z"
         id="path11"
         fill="#666666" /><path
         d="M33.09,54.705   C49.459,60.663,59.71,81.744,60.958,91.24"
         id="path13"
         stroke-linejoin="round"
         stroke-linecap="round"
         stroke="#000000"
         fill="none" /><path
         d="M33.09,54.705   c16.369,5.958,37.773-3.601,44.833-10.073"
         id="path15"
         stroke-linejoin="round"
         stroke-linecap="round"
         stroke="#000000"
         fill="none" /><path
         display="none"
         d="M67.656,51.045c3.049,4.873,3.908,11.058,1.788,16.882   c-2.12,5.824-6.744,10.014-12.221,11.784c-4.54-9.704-12.895-20.924-24.13-25.014C44.329,58.787,57.941,55.561,67.656,51.045z"
         id="path17"
         stroke="#000000"
         fill="none" /></g><g
       id="g19"
       style=""><polygon
         points="256.344,24.164 153.933,146.213 181.651,0  "
         id="polygon21"
         fill="#60BDE1" /><rect
         x="203.642"
         y="7.712"
         transform="matrix(0.7661 0.6428 -0.6428 0.7661 105.2938 -112.6375)"
         width="7.499"
         height="161.251"
         id="rect23"
         fill="#ABABAB" /><line
         stroke-miterlimit="10"
         x1="155.566"
         y1="150.1"
         x2="137.624"
         y2="145.813"
         id="line25"
         stroke-linejoin="round"
         stroke-linecap="round"
         stroke-width="3"
         stroke="#ABABAB"
         fill="none" /></g><g
       id="g119"
       style=""><g
         id="g121"><line
           stroke-miterlimit="10"
           x1="20.25"
           y1="104.365"
           x2="34.089"
           y2="104.365"
           id="line123"
           stroke-width="3"
           stroke="#FFFF00"
           fill="none" /><g
           id="g125"><polygon
             points="31.682,112.547 45.93,104.32 31.682,96.094    "
             id="polygon127"
             fill="#FFFF00" /></g></g></g><g
       id="g129"
       style=""><g
         id="g131"><polyline
           points="162.097,14.535 169.854,59.615     184.75,109.399 161.866,104.365 7.339,104.365   "
           id="polyline133"
           stroke-linejoin="bevel"
           stroke-width="3"
           stroke="#FFFF00"
           fill="none" /><g
           id="g135"><polygon
             points="154.442,18.294 160.134,2.857 170.657,15.504    "
             id="polygon137"
             fill="#FFFF00" /></g></g></g><line
       style=""
       stroke-miterlimit="10"
       x1="161.866"
       y1="104.365"
       x2="83.451"
       y2="75.365"
       id="line139"
       stroke="#FFFF00"
       fill="none" /><g
       id="g141"
       style=""><g
         id="g143"><line
           stroke-miterlimit="10"
           x1="181.014"
           y1="96.913"
           x2="178.101"
           y2="87.177"
           id="line145"
           stroke-width="3"
           stroke="#FFFF00"
           fill="none" /><g
           id="g147"><polygon
             points="186.628,87.138 174.663,75.845 170.865,91.854    "
             id="polygon149"
             fill="#FFFF00" /></g></g></g><g
       id="g151"
       style=""><g
         id="g153"><line
           stroke-miterlimit="10"
           x1="134.699"
           y1="94.318"
           x2="116.509"
           y2="87.591"
           id="line155"
           stroke="#FFFF00"
           fill="none" /><g
           id="g157"><polygon
             points="119.598,83.447 109.77,85.127 116.139,92.8    "
             id="polygon159"
             fill="#FFFF00" /></g></g></g><g
       id="g161"
       style=""><g
         id="g163"><line
           stroke-miterlimit="10"
           x1="169.854"
           y1="59.615"
           x2="195.51"
           y2="26.569"
           id="line165"
           stroke="#FFFF00"
           fill="none" /><g
           id="g167"><polygon
             points="198.531,30.762 199.89,20.884 190.655,24.647    "
             id="polygon169"
             fill="#FFFF00" /></g></g></g></g><g
     inkscape:groupmode="layer"
     id="layer2"
     inkscape:label="text"
     style="display:none"><text
       xml:space="preserve"
       style="font-style:normal;font-variant:normal;font-weight:normal;font-stretch:normal;font-size:12px;line-height:125%;font-family:Arial;-inkscape-font-specification:'Arial, Normal';text-align:start;letter-spacing:0px;word-spacing:0px;writing-mode:lr-tb;text-anchor:start;fill:#000000;fill-opacity:1;stroke:none;stroke-width:1px;stroke-linecap:butt;stroke-linejoin:miter;stroke-opacity:1"
       x="12.403673"
       y="32.323471"
       id="text4436"
       sodipodi:linespacing="125%"><tspan
         sodipodi:role="line"
         id="tspan4438"
         x="12.403673"
         y="32.323471">Auge des Fahrers</tspan></text>
<text
       sodipodi:linespacing="125%"
       id="text4440"
       y="127.79874"
       x="11.606798"
       style="font-style:normal;font-variant:normal;font-weight:normal;font-stretch:normal;font-size:12px;line-height:125%;font-family:Arial;-inkscape-font-specification:'Arial, Normal';text-align:start;letter-spacing:0px;word-spacing:0px;writing-mode:lr-tb;text-anchor:start;fill:#000000;fill-opacity:1;stroke:none;stroke-width:1px;stroke-linecap:butt;stroke-linejoin:miter;stroke-opacity:1"
       xml:space="preserve"><tspan
         sodipodi:role="line"
         id="tspan4446"
         x="11.606798"
         y="127.79874">Licht vom</tspan><tspan
         sodipodi:role="line"
         id="tspan4448"
         x="11.606798"
         y="142.79874">rückwertigem Auto</tspan></text>
<text
       xml:space="preserve"
       style="font-style:normal;font-variant:normal;font-weight:normal;font-stretch:normal;font-size:12px;line-height:125%;font-family:Arial;-inkscape-font-specification:'Arial, Normal';text-align:start;letter-spacing:0px;word-spacing:0px;writing-mode:lr-tb;text-anchor:start;fill:#000000;fill-opacity:1;stroke:none;stroke-width:1px;stroke-linecap:butt;stroke-linejoin:miter;stroke-opacity:1"
       x="147.14426"
       y="118.43842"
       id="text4450"
       sodipodi:linespacing="125%"><tspan
         sodipodi:role="line"
         id="tspan4456"
         x="147.14426"
         y="118.43842">A</tspan></text>
<text
       sodipodi:linespacing="125%"
       id="text4458"
       y="122.93138"
       x="192.07379"
       style="font-style:normal;font-variant:normal;font-weight:normal;font-stretch:normal;font-size:12px;line-height:125%;font-family:Arial;-inkscape-font-specification:'Arial, Normal';text-align:start;letter-spacing:0px;word-spacing:0px;writing-mode:lr-tb;text-anchor:start;fill:#000000;fill-opacity:1;stroke:none;stroke-width:1px;stroke-linecap:butt;stroke-linejoin:miter;stroke-opacity:1"
       xml:space="preserve"><tspan
         sodipodi:role="line"
         id="tspan4462"
         x="192.07379"
         y="122.93138">B</tspan></text>
<text
       xml:space="preserve"
       style="font-style:normal;font-variant:normal;font-weight:normal;font-stretch:normal;font-size:12px;line-height:125%;font-family:Arial;-inkscape-font-specification:'Arial, Normal';text-align:start;letter-spacing:0px;word-spacing:0px;writing-mode:lr-tb;text-anchor:start;fill:#000000;fill-opacity:1;stroke:none;stroke-width:1px;stroke-linecap:butt;stroke-linejoin:miter;stroke-opacity:1"
       x="155.75574"
       y="66.769455"
       id="text4464"
       sodipodi:linespacing="125%"><tspan
         sodipodi:role="line"
         id="tspan4468"
         x="155.75574"
         y="66.769455">C</tspan></text>
</g><g
     style="display:inline"
     inkscape:label="text Kopie"
     id="g5517"
     inkscape:groupmode="layer"><g
       style="font-style:normal;font-variant:normal;font-weight:normal;font-stretch:normal;font-size:12px;line-height:125%;font-family:Arial;-inkscape-font-specification:'Arial, Normal';text-align:start;letter-spacing:0px;word-spacing:0px;writing-mode:lr-tb;text-anchor:start;fill:#000000;fill-opacity:1;stroke:none;stroke-width:1px;stroke-linecap:butt;stroke-linejoin:miter;stroke-opacity:1"
       id="text5519"><path
         d="m 12.386095,32.323471 3.298828,-8.589844 1.22461,0 3.515625,8.589844 -1.294922,0 -1.001953,-2.601562 -3.591797,0 -0.94336,2.601562 -1.207031,0 z m 2.478516,-3.527344 2.912109,0 -0.896484,-2.378906 q -0.410157,-1.083984 -0.609375,-1.78125 -0.164063,0.826172 -0.462891,1.640625 l -0.943359,2.519531 z"
         style=""
         id="path5542" /><path
         d="m 25.288439,32.323471 0,-0.914062 q -0.726563,1.054687 -1.97461,1.054687 -0.550781,0 -1.03125,-0.210937 -0.474609,-0.210938 -0.708984,-0.527344 -0.228516,-0.322266 -0.322266,-0.785156 -0.06445,-0.310547 -0.06445,-0.984375 l 0,-3.855469 1.054688,0 0,3.451172 q 0,0.826172 0.06445,1.113281 0.09961,0.416016 0.421875,0.65625 0.322266,0.234375 0.796875,0.234375 0.474609,0 0.890625,-0.240234 0.416016,-0.246094 0.585937,-0.66211 0.175782,-0.421875 0.175782,-1.21875 l 0,-3.333984 1.054687,0 0,6.222656 -0.943359,0 z"
         style=""
         id="path5544" /><path
         d="m 27.696642,32.839096 1.025391,0.152344 q 0.06445,0.474609 0.357421,0.691406 0.392579,0.292969 1.072266,0.292969 0.732422,0 1.130859,-0.292969 0.398438,-0.292969 0.539063,-0.820312 0.08203,-0.322266 0.07617,-1.353516 -0.691406,0.814453 -1.722656,0.814453 -1.283204,0 -1.986329,-0.925781 -0.703125,-0.925781 -0.703125,-2.220703 0,-0.890625 0.322266,-1.640625 0.322266,-0.75586 0.931641,-1.166016 0.615234,-0.410156 1.441406,-0.410156 1.101562,0 1.816406,0.890625 l 0,-0.75 0.972656,0 0,5.378906 q 0,1.453125 -0.298828,2.056641 -0.292968,0.609375 -0.9375,0.960937 -0.638672,0.351563 -1.576172,0.351563 -1.113281,0 -1.798828,-0.503907 -0.685547,-0.498046 -0.662109,-1.505859 z m 0.873047,-3.738281 q 0,1.224609 0.486328,1.787109 0.486328,0.5625 1.21875,0.5625 0.726562,0 1.21875,-0.55664 0.492187,-0.5625 0.492187,-1.757813 0,-1.142578 -0.509765,-1.722656 -0.503906,-0.580078 -1.21875,-0.580078 -0.703125,0 -1.195313,0.574218 -0.492187,0.56836 -0.492187,1.69336 z"
         style=""
         id="path5546" /><path
         d="m 38.829454,30.319565 1.089844,0.134765 q -0.257812,0.955079 -0.955078,1.482422 -0.697266,0.527344 -1.78125,0.527344 -1.365234,0 -2.167969,-0.837891 -0.796875,-0.84375 -0.796875,-2.361328 0,-1.570312 0.808594,-2.4375 0.808594,-0.867187 2.097656,-0.867187 1.248047,0 2.039063,0.849609 0.791015,0.84961 0.791015,2.390625 0,0.09375 -0.0059,0.28125 l -4.640625,0 q 0.05859,1.025391 0.580078,1.570313 0.521485,0.544922 1.300781,0.544922 0.580079,0 0.990235,-0.304688 0.410156,-0.304687 0.65039,-0.972656 z m -3.46289,-1.705078 3.474609,0 q -0.07031,-0.785157 -0.398437,-1.177735 -0.503907,-0.609375 -1.306641,-0.609375 -0.726562,0 -1.224609,0.486328 -0.492188,0.486329 -0.544922,1.300782 z"
         style=""
         id="path5548" /><path
         d="m 48.614611,32.323471 0,-0.785156 q -0.591797,0.925781 -1.740235,0.925781 -0.74414,0 -1.371093,-0.410156 -0.621094,-0.410156 -0.966797,-1.142578 -0.339844,-0.738282 -0.339844,-1.69336 0,-0.93164 0.310547,-1.6875 0.310547,-0.761718 0.93164,-1.166015 0.621094,-0.404297 1.388672,-0.404297 0.5625,0 1.001953,0.240234 0.439454,0.234375 0.714844,0.615235 l 0,-3.082032 1.048828,0 0,8.589844 -0.978515,0 z m -3.333985,-3.105469 q 0,1.195313 0.503907,1.78711 0.503906,0.591797 1.189453,0.591797 0.691406,0 1.171875,-0.5625 0.486328,-0.56836 0.486328,-1.728516 0,-1.277344 -0.492188,-1.875 -0.492187,-0.597656 -1.21289,-0.597656 -0.703125,0 -1.177735,0.574218 -0.46875,0.574219 -0.46875,1.810547 z"
         style=""
         id="path5550" /><path
         d="m 55.516954,30.319565 1.089844,0.134765 q -0.257812,0.955079 -0.955078,1.482422 -0.697266,0.527344 -1.78125,0.527344 -1.365234,0 -2.167969,-0.837891 -0.796875,-0.84375 -0.796875,-2.361328 0,-1.570312 0.808594,-2.4375 0.808594,-0.867187 2.097656,-0.867187 1.248047,0 2.039063,0.849609 0.791015,0.84961 0.791015,2.390625 0,0.09375 -0.0059,0.28125 l -4.640625,0 q 0.05859,1.025391 0.580078,1.570313 0.521485,0.544922 1.300781,0.544922 0.580079,0 0.990235,-0.304688 0.410156,-0.304687 0.65039,-0.972656 z m -3.46289,-1.705078 3.474609,0 q -0.07031,-0.785157 -0.398437,-1.177735 -0.503907,-0.609375 -1.306641,-0.609375 -0.726562,0 -1.224609,0.486328 -0.492188,0.486329 -0.544922,1.300782 z"
         style=""
         id="path5552" /><path
         d="m 57.515001,30.466049 1.042969,-0.164062 q 0.08789,0.626953 0.486328,0.960937 0.404297,0.333985 1.125,0.333985 0.726563,0 1.078125,-0.292969 0.351563,-0.298828 0.351563,-0.697266 0,-0.357422 -0.310547,-0.5625 -0.216797,-0.140625 -1.078125,-0.357422 -1.160156,-0.292968 -1.611328,-0.503906 -0.445313,-0.216797 -0.679688,-0.591797 -0.228515,-0.380859 -0.228515,-0.83789 0,-0.416016 0.1875,-0.767579 0.193359,-0.357421 0.521484,-0.591796 0.246094,-0.181641 0.667969,-0.304688 0.427734,-0.128906 0.914062,-0.128906 0.732422,0 1.283203,0.210937 0.556641,0.210938 0.820313,0.574219 0.263672,0.357422 0.363281,0.960938 l -1.03125,0.140625 q -0.07031,-0.480469 -0.410156,-0.75 -0.333985,-0.269532 -0.949219,-0.269532 -0.726562,0 -1.037109,0.240235 -0.310547,0.240234 -0.310547,0.5625 0,0.205078 0.128906,0.36914 0.128906,0.169922 0.404297,0.28125 0.158203,0.05859 0.931641,0.269532 1.11914,0.298828 1.558593,0.492187 0.445313,0.1875 0.697266,0.550781 0.251953,0.363282 0.251953,0.902344 0,0.527344 -0.310547,0.996094 -0.304687,0.46289 -0.884765,0.720703 -0.580079,0.251953 -1.3125,0.251953 -1.212891,0 -1.851563,-0.503906 -0.632812,-0.503906 -0.808594,-1.494141 z"
         style=""
         id="path5554" /><path
         d="m 67.458361,32.323471 0,-8.589844 5.794922,0 0,1.013672 -4.658204,0 0,2.660156 4.03125,0 0,1.013672 -4.03125,0 0,3.902344 -1.136718,0 z"
         style=""
         id="path5556" /><path
         d="m 78.661486,31.555893 q -0.585938,0.498047 -1.13086,0.703125 -0.539062,0.205078 -1.160156,0.205078 -1.025391,0 -1.576172,-0.498047 -0.550781,-0.503906 -0.550781,-1.283203 0,-0.457031 0.205078,-0.832031 0.210938,-0.38086 0.544922,-0.609375 0.339844,-0.228516 0.761719,-0.345703 0.310547,-0.08203 0.9375,-0.158203 1.277343,-0.152344 1.880859,-0.363282 0.0059,-0.216797 0.0059,-0.27539 0,-0.644532 -0.298828,-0.908203 -0.404297,-0.357422 -1.201172,-0.357422 -0.74414,0 -1.101562,0.263672 -0.351563,0.257812 -0.521484,0.919921 l -1.03125,-0.140625 q 0.140625,-0.662109 0.46289,-1.066406 0.322266,-0.410156 0.931641,-0.626953 0.609375,-0.222656 1.412109,-0.222656 0.796875,0 1.294922,0.1875 0.498047,0.1875 0.732422,0.474609 0.234375,0.28125 0.328125,0.714844 0.05273,0.269531 0.05273,0.972656 l 0,1.40625 q 0,1.470703 0.06445,1.863281 0.07031,0.386719 0.269532,0.744141 l -1.101563,0 q -0.164062,-0.328125 -0.210937,-0.767578 z m -0.08789,-2.355469 q -0.574219,0.234375 -1.722656,0.398438 -0.650391,0.09375 -0.919922,0.210937 -0.269531,0.117188 -0.416016,0.345703 -0.146484,0.222657 -0.146484,0.498047 0,0.421875 0.316406,0.703125 0.322266,0.28125 0.9375,0.28125 0.609375,0 1.083985,-0.263672 0.474609,-0.269531 0.697265,-0.732422 0.169922,-0.357421 0.169922,-1.054687 l 0,-0.386719 z"
         style=""
         id="path5558" /><path
         d="m 81.280626,32.323471 0,-8.589844 1.054688,0 0,3.082032 q 0.738281,-0.855469 1.863281,-0.855469 0.691406,0 1.201172,0.27539 0.509766,0.269532 0.726562,0.75 0.222657,0.480469 0.222657,1.394532 l 0,3.943359 -1.054688,0 0,-3.943359 q 0,-0.791016 -0.345703,-1.148438 -0.339844,-0.363281 -0.966797,-0.363281 -0.46875,0 -0.884765,0.246094 -0.410157,0.240234 -0.585938,0.65625 -0.175781,0.416015 -0.175781,1.148437 l 0,3.404297 -1.054688,0 z"
         style=""
         id="path5560" /><path
         d="m 87.948595,32.323471 0,-6.222656 0.949219,0 0,0.943359 q 0.363281,-0.662109 0.667969,-0.873047 0.310546,-0.210937 0.679687,-0.210937 0.533203,0 1.083984,0.339844 l -0.363281,0.978515 q -0.386719,-0.228515 -0.773437,-0.228515 -0.345703,0 -0.621094,0.210937 -0.275391,0.205078 -0.392578,0.574219 -0.175781,0.5625 -0.175781,1.230469 l 0,3.257812 -1.054688,0 z"
         style=""
         id="path5562" /><path
         d="m 96.227892,30.319565 1.089844,0.134765 q -0.257813,0.955079 -0.955078,1.482422 -0.697266,0.527344 -1.78125,0.527344 -1.365235,0 -2.167969,-0.837891 -0.796875,-0.84375 -0.796875,-2.361328 0,-1.570312 0.808594,-2.4375 0.808593,-0.867187 2.097656,-0.867187 1.248047,0 2.039062,0.849609 0.791016,0.84961 0.791016,2.390625 0,0.09375 -0.0059,0.28125 l -4.640625,0 q 0.05859,1.025391 0.580078,1.570313 0.521484,0.544922 1.300781,0.544922 0.580078,0 0.990234,-0.304688 0.410157,-0.304687 0.650391,-0.972656 z m -3.462891,-1.705078 3.47461,0 q -0.07031,-0.785157 -0.398438,-1.177735 -0.503906,-0.609375 -1.30664,-0.609375 -0.726563,0 -1.22461,0.486328 -0.492187,0.486329 -0.544922,1.300782 z"
         style=""
         id="path5564" /><path
         d="m 98.636095,32.323471 0,-6.222656 0.949219,0 0,0.943359 q 0.363281,-0.662109 0.667966,-0.873047 0.31055,-0.210937 0.67969,-0.210937 0.5332,0 1.08398,0.339844 l -0.36328,0.978515 q -0.38672,-0.228515 -0.77343,-0.228515 -0.34571,0 -0.6211,0.210937 -0.275389,0.205078 -0.392576,0.574219 -0.175781,0.5625 -0.175781,1.230469 l 0,3.257812 -1.054688,0 z"
         style=""
         id="path5566" /><path
         d="m 102.23375,30.466049 1.04297,-0.164062 q 0.0879,0.626953 0.48633,0.960937 0.4043,0.333985 1.125,0.333985 0.72656,0 1.07812,-0.292969 0.35157,-0.298828 0.35157,-0.697266 0,-0.357422 -0.31055,-0.5625 -0.2168,-0.140625 -1.07813,-0.357422 -1.16015,-0.292968 -1.61132,-0.503906 -0.44532,-0.216797 -0.67969,-0.591797 -0.22852,-0.380859 -0.22852,-0.83789 0,-0.416016 0.1875,-0.767579 0.19336,-0.357421 0.52149,-0.591796 0.24609,-0.181641 0.66797,-0.304688 0.42773,-0.128906 0.91406,-0.128906 0.73242,0 1.2832,0.210937 0.55664,0.210938 0.82031,0.574219 0.26368,0.357422 0.36329,0.960938 l -1.03125,0.140625 q -0.0703,-0.480469 -0.41016,-0.75 -0.33399,-0.269532 -0.94922,-0.269532 -0.72656,0 -1.03711,0.240235 -0.31055,0.240234 -0.31055,0.5625 0,0.205078 0.12891,0.36914 0.12891,0.169922 0.4043,0.28125 0.1582,0.05859 0.93164,0.269532 1.11914,0.298828 1.55859,0.492187 0.44531,0.1875 0.69727,0.550781 0.25195,0.363282 0.25195,0.902344 0,0.527344 -0.31055,0.996094 -0.30468,0.46289 -0.88476,0.720703 -0.58008,0.251953 -1.3125,0.251953 -1.21289,0 -1.85156,-0.503906 -0.63282,-0.503906 -0.8086,-1.494141 z"
         style=""
         id="path5568" /></g><g
       style="font-style:normal;font-variant:normal;font-weight:normal;font-stretch:normal;font-size:12px;line-height:125%;font-family:Arial;-inkscape-font-specification:'Arial, Normal';text-align:start;letter-spacing:0px;word-spacing:0px;writing-mode:lr-tb;text-anchor:start;fill:#000000;fill-opacity:1;stroke:none;stroke-width:1px;stroke-linecap:butt;stroke-linejoin:miter;stroke-opacity:1"
       id="text5523"><path
         d="m 12.485704,127.79874 0,-8.58985 1.136719,0 0,7.57617 4.230469,0 0,1.01368 -5.367188,0 z"
         style=""
         id="path5571" /><path
         d="m 19.083361,120.42178 0,-1.21289 1.054687,0 0,1.21289 -1.054687,0 z m 0,7.37696 0,-6.22266 1.054687,0 0,6.22266 -1.054687,0 z"
         style=""
         id="path5573" /><path
         d="m 25.809923,125.51944 1.03711,0.13477 q -0.169922,1.07226 -0.873047,1.68164 -0.697266,0.60351 -1.716797,0.60351 -1.277344,0 -2.056641,-0.83203 -0.773437,-0.83789 -0.773437,-2.39648 0,-1.00782 0.333984,-1.76368 0.333984,-0.75586 1.013672,-1.13086 0.685547,-0.38085 1.488281,-0.38085 1.013672,0 1.658203,0.51562 0.644532,0.50977 0.826172,1.45313 l -1.02539,0.1582 q -0.146485,-0.62695 -0.521485,-0.94336 -0.36914,-0.31641 -0.896484,-0.31641 -0.796875,0 -1.294922,0.57422 -0.498047,0.56836 -0.498047,1.80469 0,1.25391 0.480469,1.82226 0.480469,0.56836 1.253906,0.56836 0.621094,0 1.037109,-0.38086 0.416016,-0.38085 0.527344,-1.17187 z"
         style=""
         id="path5575" /><path
         d="m 27.749376,127.79874 0,-8.58985 1.054688,0 0,3.08203 q 0.738281,-0.85546 1.863281,-0.85546 0.691406,0 1.201172,0.27539 0.509766,0.26953 0.726562,0.75 0.222657,0.48046 0.222657,1.39453 l 0,3.94336 -1.054688,0 0,-3.94336 q 0,-0.79102 -0.345703,-1.14844 -0.339844,-0.36328 -0.966797,-0.36328 -0.46875,0 -0.884765,0.24609 -0.410157,0.24024 -0.585938,0.65625 -0.175781,0.41602 -0.175781,1.14844 l 0,3.4043 -1.054688,0 z"
         style=""
         id="path5577" /><path
         d="m 36.731798,126.85538 0.152344,0.93164 q -0.445313,0.0937 -0.796875,0.0937 -0.574219,0 -0.890625,-0.18164 -0.316406,-0.18164 -0.445313,-0.47461 -0.128906,-0.29883 -0.128906,-1.24805 l 0,-3.58008 -0.773437,0 0,-0.82031 0.773437,0 0,-1.54102 1.048828,-0.63281 0,2.17383 1.060547,0 0,0.82031 -1.060547,0 0,3.63867 q 0,0.45118 0.05273,0.58008 0.05859,0.12891 0.18164,0.20508 0.128907,0.0762 0.363282,0.0762 0.175781,0 0.46289,-0.041 z"
         style=""
         id="path5579" /><path
         d="m 42.813829,127.79874 -2.367187,-6.22266 1.113281,0 1.335938,3.72656 q 0.216797,0.60352 0.398437,1.25391 0.140625,-0.49219 0.392578,-1.18359 l 1.382813,-3.79688 1.083984,0 -2.355469,6.22266 -0.984375,0 z"
         style=""
         id="path5581" /><path
         d="m 46.716173,124.68741 q 0,-1.72852 0.960938,-2.56055 0.802734,-0.6914 1.957031,-0.6914 1.283203,0 2.097656,0.84375 0.814453,0.83789 0.814453,2.32031 0,1.20117 -0.363281,1.89258 -0.357422,0.68554 -1.048828,1.0664 -0.685547,0.38086 -1.5,0.38086 -1.306641,0 -2.115234,-0.83789 -0.802735,-0.83789 -0.802735,-2.41406 z m 1.083985,0 q 0,1.19531 0.521484,1.79297 0.521484,0.59179 1.3125,0.59179 0.785156,0 1.306641,-0.59765 0.521484,-0.59766 0.521484,-1.82227 0,-1.15429 -0.527344,-1.74609 -0.521484,-0.59766 -1.300781,-0.59766 -0.791016,0 -1.3125,0.5918 -0.521484,0.5918 -0.521484,1.78711 z"
         style=""
         id="path5583" /><path
         d="m 53.788439,127.79874 0,-6.22266 0.943359,0 0,0.87305 q 0.292969,-0.45703 0.779297,-0.73242 0.486328,-0.28125 1.107422,-0.28125 0.691406,0 1.130859,0.2871 0.445313,0.28711 0.626953,0.80274 0.738282,-1.08984 1.921875,-1.08984 0.925782,0 1.423829,0.51562 0.498046,0.50977 0.498046,1.57617 l 0,4.27149 -1.048828,0 0,-3.91993 q 0,-0.63281 -0.105468,-0.9082 -0.09961,-0.28125 -0.369141,-0.45117 -0.269531,-0.16992 -0.632813,-0.16992 -0.65625,0 -1.089843,0.43945 -0.433594,0.43359 -0.433594,1.39453 l 0,3.61524 -1.054688,0 0,-4.04297 q 0,-0.70313 -0.257812,-1.05469 -0.257813,-0.35156 -0.84375,-0.35156 -0.445313,0 -0.826172,0.23437 -0.375,0.23438 -0.544922,0.68555 -0.169922,0.45117 -0.169922,1.30078 l 0,3.22852 -1.054687,0 z"
         style=""
         id="path5585" /><path
         d="m 12.386095,142.79874 0,-6.22266 0.949219,0 0,0.94336 q 0.363281,-0.66211 0.667969,-0.87305 0.310546,-0.21093 0.679687,-0.21093 0.533203,0 1.083984,0.33984 l -0.363281,0.97851 q -0.386719,-0.22851 -0.773437,-0.22851 -0.345703,0 -0.621094,0.21094 -0.275391,0.20507 -0.392578,0.57422 -0.175781,0.5625 -0.175781,1.23046 l 0,3.25782 -1.054688,0 z"
         style=""
         id="path5587" /><path
         d="m 20.483751,142.79874 0,-0.91407 q -0.726562,1.05469 -1.974609,1.05469 -0.550781,0 -1.03125,-0.21094 -0.474609,-0.21093 -0.708984,-0.52734 -0.228516,-0.32227 -0.322266,-0.78516 -0.06445,-0.31054 -0.06445,-0.98437 l 0,-3.85547 1.054687,0 0,3.45117 q 0,0.82617 0.06445,1.11328 0.09961,0.41602 0.421875,0.65625 0.322266,0.23438 0.796875,0.23438 0.47461,0 0.890625,-0.24024 0.416016,-0.24609 0.585938,-0.66211 0.175781,-0.42187 0.175781,-1.21875 l 0,-3.33398 1.054688,0 0,6.22266 -0.94336,0 z m -3.222656,-7.44141 0,-1.20117 1.101563,0 0,1.20117 -1.101563,0 z m 2.185547,0 0,-1.20117 1.101562,0 0,1.20117 -1.101562,0 z"
         style=""
         id="path5589" /><path
         d="m 27.145861,140.51944 1.037109,0.13477 q -0.169922,1.07226 -0.873047,1.68164 -0.697265,0.60351 -1.716797,0.60351 -1.277343,0 -2.05664,-0.83203 -0.773438,-0.83789 -0.773438,-2.39648 0,-1.00782 0.333985,-1.76368 0.333984,-0.75586 1.013671,-1.13086 0.685547,-0.38085 1.488282,-0.38085 1.013672,0 1.658203,0.51562 0.644531,0.50977 0.826172,1.45313 l -1.025391,0.1582 q -0.146484,-0.62695 -0.521484,-0.94336 -0.369141,-0.31641 -0.896485,-0.31641 -0.796875,0 -1.294922,0.57422 -0.498046,0.56836 -0.498046,1.80469 0,1.25391 0.480468,1.82226 0.480469,0.56836 1.253907,0.56836 0.621093,0 1.037109,-0.38086 0.416016,-0.38085 0.527344,-1.17187 z"
         style=""
         id="path5591" /><path
         d="m 29.091173,142.79874 0,-8.58985 1.054688,0 0,4.89844 2.496093,-2.53125 1.365235,0 -2.378906,2.30859 2.61914,3.91407 -1.300781,0 -2.056641,-3.18164 -0.74414,0.71484 0,2.4668 -1.054688,0 z"
         style=""
         id="path5593" /><path
         d="m 36.233751,142.79874 -1.904297,-6.22266 1.089844,0 0.990235,3.5918 0.36914,1.33593 q 0.02344,-0.0996 0.322266,-1.2832 l 0.990234,-3.64453 1.083985,0 0.93164,3.60938 0.310547,1.18945 0.357422,-1.20117 1.066406,-3.59766 1.025391,0 -1.945313,6.22266 -1.095703,0 -0.990234,-3.72657 -0.240235,-1.06054 -1.259765,4.78711 -1.101563,0 z"
         style=""
         id="path5595" /><path
         d="m 48.040392,140.79483 1.089844,0.13477 q -0.257813,0.95507 -0.955078,1.48242 -0.697266,0.52734 -1.78125,0.52734 -1.365235,0 -2.167969,-0.83789 -0.796875,-0.84375 -0.796875,-2.36133 0,-1.57031 0.808594,-2.4375 0.808593,-0.86718 2.097656,-0.86718 1.248047,0 2.039062,0.8496 0.791016,0.84961 0.791016,2.39063 0,0.0937 -0.0059,0.28125 l -4.640625,0 q 0.05859,1.02539 0.580078,1.57031 0.521484,0.54492 1.300781,0.54492 0.580078,0 0.990234,-0.30468 0.410157,-0.30469 0.650391,-0.97266 z m -3.462891,-1.70508 3.47461,0 q -0.07031,-0.78515 -0.398438,-1.17773 -0.503906,-0.60938 -1.30664,-0.60938 -0.726563,0 -1.22461,0.48633 -0.492187,0.48633 -0.544922,1.30078 z"
         style=""
         id="path5597" /><path
         d="m 50.448595,142.79874 0,-6.22266 0.949219,0 0,0.94336 q 0.363281,-0.66211 0.667969,-0.87305 0.310546,-0.21093 0.679687,-0.21093 0.533203,0 1.083984,0.33984 l -0.363281,0.97851 q -0.386719,-0.22851 -0.773437,-0.22851 -0.345703,0 -0.621094,0.21094 -0.275391,0.20507 -0.392578,0.57422 -0.175781,0.5625 -0.175781,1.23046 l 0,3.25782 -1.054688,0 z"
         style=""
         id="path5599" /><path
         d="m 56.770861,141.85538 0.152343,0.93164 q -0.445312,0.0937 -0.796875,0.0937 -0.574218,0 -0.890625,-0.18164 -0.316406,-0.18164 -0.445312,-0.47461 -0.128906,-0.29883 -0.128906,-1.24805 l 0,-3.58008 -0.773438,0 0,-0.82031 0.773438,0 0,-1.54102 1.048828,-0.63281 0,2.17383 1.060547,0 0,0.82031 -1.060547,0 0,3.63867 q 0,0.45118 0.05273,0.58008 0.05859,0.12891 0.181641,0.20508 0.128906,0.0762 0.363281,0.0762 0.175781,0 0.462891,-0.041 z"
         style=""
         id="path5601" /><path
         d="m 57.802111,135.42178 0,-1.21289 1.054687,0 0,1.21289 -1.054687,0 z m 0,7.37696 0,-6.22266 1.054687,0 0,6.22266 -1.054687,0 z"
         style=""
         id="path5603" /><path
         d="m 60.274767,143.31436 1.025391,0.15235 q 0.06445,0.4746 0.357421,0.6914 0.392579,0.29297 1.072266,0.29297 0.732422,0 1.130859,-0.29297 0.398438,-0.29297 0.539063,-0.82031 0.08203,-0.32227 0.07617,-1.35352 -0.691406,0.81446 -1.722656,0.81446 -1.283204,0 -1.986329,-0.92578 -0.703125,-0.92579 -0.703125,-2.22071 0,-0.89062 0.322266,-1.64062 0.322266,-0.75586 0.931641,-1.16602 0.615234,-0.41015 1.441406,-0.41015 1.101562,0 1.816406,0.89062 l 0,-0.75 0.972656,0 0,5.37891 q 0,1.45312 -0.298828,2.05664 -0.292968,0.60937 -0.9375,0.96093 -0.638672,0.35157 -1.576172,0.35157 -1.113281,0 -1.798828,-0.50391 -0.685547,-0.49805 -0.662109,-1.50586 z m 0.873047,-3.73828 q 0,1.22461 0.486328,1.78711 0.486328,0.5625 1.21875,0.5625 0.726562,0 1.21875,-0.55664 0.492187,-0.5625 0.492187,-1.75781 0,-1.14258 -0.509765,-1.72266 -0.503906,-0.58008 -1.21875,-0.58008 -0.703125,0 -1.195313,0.57422 -0.492187,0.56836 -0.492187,1.69336 z"
         style=""
         id="path5605" /><path
         d="m 71.407579,140.79483 1.089844,0.13477 q -0.257812,0.95507 -0.955078,1.48242 -0.697266,0.52734 -1.78125,0.52734 -1.365234,0 -2.167969,-0.83789 -0.796875,-0.84375 -0.796875,-2.36133 0,-1.57031 0.808594,-2.4375 0.808594,-0.86718 2.097656,-0.86718 1.248047,0 2.039063,0.8496 0.791015,0.84961 0.791015,2.39063 0,0.0937 -0.0059,0.28125 l -4.640625,0 q 0.05859,1.02539 0.580078,1.57031 0.521485,0.54492 1.300781,0.54492 0.580079,0 0.990235,-0.30468 0.410156,-0.30469 0.65039,-0.97266 z m -3.46289,-1.70508 3.474609,0 q -0.07031,-0.78515 -0.398437,-1.17773 -0.503907,-0.60938 -1.306641,-0.60938 -0.726562,0 -1.224609,0.48633 -0.492188,0.48633 -0.544922,1.30078 z"
         style=""
         id="path5607" /><path
         d="m 73.827501,142.79874 0,-6.22266 0.94336,0 0,0.87305 q 0.292968,-0.45703 0.779297,-0.73242 0.486328,-0.28125 1.107421,-0.28125 0.691407,0 1.13086,0.2871 0.445312,0.28711 0.626953,0.80274 0.738281,-1.08984 1.921875,-1.08984 0.925781,0 1.423828,0.51562 0.498047,0.50977 0.498047,1.57617 l 0,4.27149 -1.048828,0 0,-3.91993 q 0,-0.63281 -0.105469,-0.9082 -0.09961,-0.28125 -0.369141,-0.45117 -0.269531,-0.16992 -0.632812,-0.16992 -0.65625,0 -1.089844,0.43945 -0.433594,0.43359 -0.433594,1.39453 l 0,3.61524 -1.054687,0 0,-4.04297 q 0,-0.70313 -0.257813,-1.05469 -0.257812,-0.35156 -0.84375,-0.35156 -0.445312,0 -0.826171,0.23437 -0.375,0.23438 -0.544922,0.68555 -0.169922,0.45117 -0.169922,1.30078 l 0,3.22852 -1.054688,0 z"
         style=""
         id="path5609" /><path
         d="m 85.722033,142.79874 3.298828,-8.58985 1.224609,0 3.515625,8.58985 -1.294922,0 -1.001953,-2.60157 -3.591797,0 -0.943359,2.60157 -1.207031,0 z m 2.478515,-3.52735 2.91211,0 -0.896485,-2.3789 q -0.410156,-1.08399 -0.609375,-1.78125 -0.164062,0.82617 -0.46289,1.64062 l -0.94336,2.51953 z"
         style=""
         id="path5611" /><path
         d="m 98.624376,142.79874 0,-0.91407 q -0.726562,1.05469 -1.974609,1.05469 -0.550781,0 -1.03125,-0.21094 -0.474609,-0.21093 -0.708984,-0.52734 -0.228516,-0.32227 -0.322266,-0.78516 -0.06445,-0.31054 -0.06445,-0.98437 l 0,-3.85547 1.054687,0 0,3.45117 q 0,0.82617 0.06445,1.11328 0.09961,0.41602 0.421875,0.65625 0.322266,0.23438 0.796875,0.23438 0.47461,0 0.890625,-0.24024 0.416016,-0.24609 0.585938,-0.66211 0.175781,-0.42187 0.175781,-1.21875 l 0,-3.33398 1.054688,0 0,6.22266 -0.94336,0 z"
         style=""
         id="path5613" /><path
         d="m 103.52867,141.85538 0.15235,0.93164 q -0.44532,0.0937 -0.79688,0.0937 -0.57422,0 -0.89062,-0.18164 -0.31641,-0.18164 -0.44532,-0.47461 -0.1289,-0.29883 -0.1289,-1.24805 l 0,-3.58008 -0.77344,0 0,-0.82031 0.77344,0 0,-1.54102 1.04883,-0.63281 0,2.17383 1.06054,0 0,0.82031 -1.06054,0 0,3.63867 q 0,0.45118 0.0527,0.58008 0.0586,0.12891 0.18164,0.20508 0.12891,0.0762 0.36328,0.0762 0.17578,0 0.46289,-0.041 z"
         style=""
         id="path5615" /><path
         d="m 104.16149,139.68741 q 0,-1.72852 0.96093,-2.56055 0.80274,-0.6914 1.95703,-0.6914 1.28321,0 2.09766,0.84375 0.81445,0.83789 0.81445,2.32031 0,1.20117 -0.36328,1.89258 -0.35742,0.68554 -1.04883,1.0664 -0.68554,0.38086 -1.5,0.38086 -1.30664,0 -2.11523,-0.83789 -0.80273,-0.83789 -0.80273,-2.41406 z m 1.08398,0 q 0,1.19531 0.52148,1.79297 0.52149,0.59179 1.3125,0.59179 0.78516,0 1.30665,-0.59765 0.52148,-0.59766 0.52148,-1.82227 0,-1.15429 -0.52734,-1.74609 -0.52149,-0.59766 -1.30079,-0.59766 -0.79101,0 -1.3125,0.5918 -0.52148,0.5918 -0.52148,1.78711 z"
         style=""
         id="path5617" /></g><g
       style="font-style:normal;font-variant:normal;font-weight:normal;font-stretch:normal;font-size:12px;line-height:125%;font-family:Arial;-inkscape-font-specification:'Arial, Normal';text-align:start;letter-spacing:0px;word-spacing:0px;writing-mode:lr-tb;text-anchor:start;fill:#000000;fill-opacity:1;stroke:none;stroke-width:1px;stroke-linecap:butt;stroke-linejoin:miter;stroke-opacity:1"
       id="text5529"><path
         d="m 147.12668,118.43842 3.29883,-8.58984 1.22461,0 3.51562,8.58984 -1.29492,0 -1.00195,-2.60156 -3.5918,0 -0.94336,2.60156 -1.20703,0 z m 2.47851,-3.52734 2.91211,0 -0.89648,-2.37891 q -0.41016,-1.08398 -0.60938,-1.78125 -0.16406,0.82618 -0.46289,1.64063 l -0.94336,2.51953 z"
         style=""
         id="path5620" /></g><g
       style="font-style:normal;font-variant:normal;font-weight:normal;font-stretch:normal;font-size:12px;line-height:125%;font-family:Arial;-inkscape-font-specification:'Arial, Normal';text-align:start;letter-spacing:0px;word-spacing:0px;writing-mode:lr-tb;text-anchor:start;fill:#000000;fill-opacity:1;stroke:none;stroke-width:1px;stroke-linecap:butt;stroke-linejoin:miter;stroke-opacity:1"
       id="text5533"><path
         d="m 192.9527,122.93138 0,-8.58984 3.22265,0 q 0.98438,0 1.57618,0.26367 0.59765,0.25781 0.93164,0.80273 0.33984,0.53907 0.33984,1.13086 0,0.55078 -0.29883,1.03711 -0.29883,0.48633 -0.90234,0.78516 0.7793,0.22851 1.19531,0.7793 0.42188,0.55078 0.42188,1.30078 0,0.60351 -0.25782,1.125 -0.25195,0.51562 -0.62695,0.79687 -0.375,0.28125 -0.94336,0.42774 -0.5625,0.14062 -1.38281,0.14062 l -3.27539,0 z m 1.13672,-4.98047 1.85742,0 q 0.75586,0 1.08398,-0.0996 0.4336,-0.1289 0.65039,-0.42773 0.22266,-0.29883 0.22266,-0.75 0,-0.42774 -0.20508,-0.75 -0.20508,-0.32813 -0.58594,-0.44531 -0.38086,-0.12305 -1.30664,-0.12305 l -1.71679,0 0,2.5957 z m 0,3.9668 2.13867,0 q 0.55078,0 0.77344,-0.041 0.39257,-0.0703 0.65625,-0.23437 0.26367,-0.16406 0.43359,-0.47461 0.16992,-0.31641 0.16992,-0.72656 0,-0.48047 -0.24609,-0.83203 -0.2461,-0.35743 -0.68555,-0.49805 -0.43359,-0.14649 -1.25391,-0.14649 l -1.98632,0 0,2.95313 z"
         style=""
         id="path5623" /></g><g
       style="font-style:normal;font-variant:normal;font-weight:normal;font-stretch:normal;font-size:12px;line-height:125%;font-family:Arial;-inkscape-font-specification:'Arial, Normal';text-align:start;letter-spacing:0px;word-spacing:0px;writing-mode:lr-tb;text-anchor:start;fill:#000000;fill-opacity:1;stroke:none;stroke-width:1px;stroke-linecap:butt;stroke-linejoin:miter;stroke-opacity:1"
       id="text5537"><path
         d="m 162.81042,63.757736 1.13672,0.28711 q -0.35742,1.40039 -1.28906,2.138671 -0.92578,0.732422 -2.26758,0.732422 -1.38867,0 -2.26172,-0.5625 -0.86718,-0.568359 -1.32421,-1.640625 -0.45118,-1.072265 -0.45118,-2.302734 0,-1.341797 0.50977,-2.337891 0.51562,-1.001953 1.45898,-1.517578 0.94922,-0.521484 2.08594,-0.521484 1.28906,0 2.16797,0.65625 0.87891,0.65625 1.22461,1.845703 l -1.11914,0.263672 q -0.29883,-0.9375 -0.86719,-1.365235 -0.56836,-0.427734 -1.42969,-0.427734 -0.99023,0 -1.6582,0.474609 -0.66211,0.47461 -0.93164,1.277344 -0.26953,0.796875 -0.26953,1.646485 0,1.095703 0.3164,1.916015 0.32227,0.814453 0.9961,1.21875 0.67383,0.404297 1.45898,0.404297 0.95508,0 1.61719,-0.550781 0.66211,-0.550781 0.89648,-1.634766 z"
         style=""
         id="path5626" /></g></g></svg>